HIERARCHY
ROOT Hips
{
	OFFSET 0.000000 0.000000 0.000000
	CHANNELS 6 Xposition Yposition Zposition Zrotation Yrotation Xrotation 
	JOINT LowerBack
	{
		OFFSET 0.000000 0.000000 0.000000
		CHANNELS 3 Zrotation Yrotation Xrotation
		JOINT Spine
		{
			OFFSET 0.028270 2.035590 -0.193380
			CHANNELS 3 Zrotation Yrotation Xrotation
			JOINT Spine1
			{
				OFFSET 0.056720 2.048850 -0.042750
				CHANNELS 3 Zrotation Yrotation Xrotation
				JOINT Neck
				{
					OFFSET 0.000000 0.000000 0.000000
					CHANNELS 3 Zrotation Yrotation Xrotation
					JOINT Neck1
					{
						OFFSET -0.054170 1.746240 0.172020
						CHANNELS 3 Zrotation Yrotation Xrotation
						JOINT Head
						{
							OFFSET 0.104070 1.761360 -0.123970
							CHANNELS 3 Zrotation Yrotation Xrotation
							End Site
							{
								OFFSET 0.000000 0.000000 0.000000
							}
						}
					}
				}
				JOINT LeftShoulder
				{
					OFFSET 0.000000 0.000000 0.000000
					CHANNELS 3 Zrotation Yrotation Xrotation
					JOINT LeftArm
					{
						OFFSET 3.362410 1.200890 -0.311210
						CHANNELS 3 Zrotation Yrotation Xrotation
						JOINT LeftForeArm
						{
							OFFSET 4.983000 -0.000000 -0.000000
							CHANNELS 3 Zrotation Yrotation Xrotation
							JOINT LeftHand
							{
								OFFSET 3.483560 -0.000000 -0.000000
								CHANNELS 3 Zrotation Yrotation Xrotation
								JOINT LeftFingerBase
								{
									OFFSET 0.000000 0.000000 0.000000
									CHANNELS 3 Zrotation Yrotation Xrotation
									JOINT LeftHandIndex1
									{
										OFFSET 0.715260 -0.000000 -0.000000
										CHANNELS 3 Zrotation Yrotation Xrotation
										End Site
										{
											OFFSET 0.000000 0.000000 0.000000
										}
									}
								}
								JOINT LThumb
								{
									OFFSET 0.000000 0.000000 0.000000
									CHANNELS 3 Zrotation Yrotation Xrotation
									End Site
									{
										OFFSET 0.000000 0.000000 0.000000
									}
								}
							}
						}
					}
				}
				JOINT RightShoulder
				{
					OFFSET 0.000000 0.000000 0.000000
					CHANNELS 3 Zrotation Yrotation Xrotation
					JOINT RightArm
					{
						OFFSET -3.136600 1.374050 -0.404650
						CHANNELS 3 Zrotation Yrotation Xrotation
						JOINT RightForeArm
						{
							OFFSET -5.241900 -0.000000 -0.000000
							CHANNELS 3 Zrotation Yrotation Xrotation
							JOINT RightHand
							{
								OFFSET -3.444170 -0.000000 -0.000000
								CHANNELS 3 Zrotation Yrotation Xrotation
								JOINT RightFingerBase
								{
									OFFSET 0.000000 0.000000 0.000000
									CHANNELS 3 Zrotation Yrotation Xrotation
									JOINT RightHandIndex1
									{
										OFFSET -0.622530 -0.000000 -0.000000
										CHANNELS 3 Zrotation Yrotation Xrotation
										End Site
										{
											OFFSET 0.000000 0.000000 0.000000
										}
									}
								}
								JOINT RThumb
								{
									OFFSET 0.000000 0.000000 0.000000
									CHANNELS 3 Zrotation Yrotation Xrotation
									End Site
									{
										OFFSET 0.000000 0.000000 0.000000
									}
								}
							}
						}
					}
				}
			}
		}
	}
}
}
MOTION
Frames: 18
Frame Time: 0.008333
-10.689468 15.404001 -0.502755 -30.651639 85.794655 -3.926828 4.739774 -3.008261 10.100262 0.199840 -2.871933 -0.810879 -6.232811 -2.767019 -0.017367 9.469632 -13.564368 -9.262046 -2.873340 -0.169595 -0.828594 0.000000 0.000000 0.000000 6.621421 9.348192 1.610564 -51.632818 0.322677 -2.648256 -179.099855 -78.320380 179.999022 -0.477792 4.131012 -0.012476 -0.074818 0.308631 0.000000 0.000000 0.000000 0.000000 0.000000 0.000000 0.000000 11.447530 -9.191675 0.873349 70.157591 -15.715535 7.157319 0.319134 80.024310 -0.037188 -11.064267 3.929463 -0.411962 0.174277 -0.269401 -0.000000 0.000000 0.000000 0.000000 0.000000 0.000000 0.000000 
-10.478062 15.379371 -0.486880 -29.557977 86.060771 -2.989138 5.024805 -3.030183 10.127986 0.276139 -2.891906 -0.818029 -6.154853 -2.791238 -0.056409 9.390122 -13.437766 -9.309479 -2.876401 -0.169266 -0.842434 0.000000 0.000000 0.000000 6.576475 9.361183 1.655378 -52.407038 1.158550 -2.359280 -179.128030 -78.728439 -179.999800 -0.644683 4.107509 -0.018181 -0.070569 0.304634 0.000000 0.000000 0.000000 0.000000 0.000000 0.000000 0.000000 11.389872 -9.014530 0.891238 70.021475 -15.491826 7.027953 0.328062 79.868738 -0.037269 -11.078808 3.939184 -0.413566 0.175128 -0.269892 -0.000000 0.000000 0.000000 0.000000 0.000000 0.000000 0.000000 
-10.270073 15.358470 -0.473257 -29.607772 86.321059 -3.157947 5.373667 -3.047661 10.165153 0.364257 -2.906550 -0.825886 -6.086828 -2.810850 -0.108240 9.334294 -13.261872 -9.342373 -2.888324 -0.169734 -0.853680 0.000000 0.000000 0.000000 6.521796 9.344624 1.704234 -53.250749 1.995385 -2.063942 -179.162799 -79.206415 -179.998842 -0.782347 4.095339 -0.022784 -0.066699 0.300467 0.000000 0.000000 0.000000 0.000000 0.000000 0.000000 0.000000 11.381230 -8.791799 0.913529 69.854905 -15.180451 6.859609 0.337463 79.686222 -0.037597 -11.132668 3.913718 -0.413173 0.176363 -0.270265 -0.000000 0.000000 0.000000 0.000000 0.000000 0.000000 0.000000 
-10.065550 15.341769 -0.461701 -30.936463 86.592780 -4.557947 5.776084 -3.063385 10.197701 0.462689 -2.919206 -0.836842 -6.027892 -2.829197 -0.170187 9.302356 -13.041543 -9.357767 -2.907964 -0.170978 -0.861089 0.000000 0.000000 0.000000 6.455055 9.293662 1.755081 -54.157128 2.830647 -1.763304 -179.204299 -79.752517 -179.998135 -0.883949 4.094718 -0.026285 -0.063278 0.296149 0.000000 0.000000 0.000000 0.000000 0.000000 0.000000 0.000000 11.417765 -8.532444 0.938949 69.662164 -14.781919 6.651011 0.347528 79.471860 -0.038143 -11.220791 3.854801 -0.410582 0.177939 -0.270486 -0.000000 0.000000 0.000000 0.000000 0.000000 0.000000 0.000000 
-9.864922 15.329535 -0.452174 -33.656812 86.889366 -7.317983 6.214156 -3.077297 10.237314 0.568067 -2.928985 -0.846305 -5.976330 -2.844890 -0.235078 9.297663 -12.790427 -9.359349 -2.933429 -0.172766 -0.865885 0.000000 0.000000 0.000000 6.393679 9.234162 1.804220 -55.137538 3.602124 -1.429768 -179.254525 -80.405467 -179.997675 -0.950354 4.110606 -0.028787 -0.060267 0.291739 0.000000 0.000000 0.000000 0.000000 0.000000 0.000000 0.000000 11.501477 -8.253437 0.963969 69.443407 -14.298259 6.397353 0.357719 79.236030 -0.038910 -11.342065 3.761846 -0.405693 0.179768 -0.270539 -0.000000 0.000000 0.000000 0.000000 0.000000 0.000000 0.000000 
-9.667834 15.321704 -0.444014 -37.840653 87.227912 -11.493301 6.661687 -3.094603 10.258237 0.675658 -2.942987 -0.859994 -5.930511 -2.865211 -0.302042 9.317030 -12.513949 -9.342498 -2.962340 -0.175036 -0.865921 0.000000 0.000000 0.000000 6.329669 9.143194 1.850696 -56.168206 4.346536 -1.076838 -179.311782 -81.139821 -179.997435 -0.980111 4.138346 -0.030087 -0.057615 0.287179 0.000000 0.000000 0.000000 0.000000 0.000000 0.000000 0.000000 11.619044 -7.963898 0.988442 69.213359 -13.737752 6.101358 0.368327 78.971084 -0.039836 -11.485786 3.644205 -0.398807 0.181754 -0.270472 -0.000000 0.000000 0.000000 0.000000 0.000000 0.000000 0.000000 
-9.474331 15.318116 -0.436790 -43.675276 87.614222 -17.279689 7.086715 -3.114413 10.261586 0.778772 -2.961384 -0.876628 -5.888277 -2.890083 -0.366159 9.360052 -12.225781 -9.309578 -2.991923 -0.177536 -0.861667 0.000000 0.000000 0.000000 6.272511 9.029986 1.891921 -57.243079 5.041428 -0.690568 -179.375972 -81.967343 -179.997389 -0.978997 4.178217 -0.030488 -0.055198 0.282449 0.000000 0.000000 0.000000 0.000000 0.000000 0.000000 0.000000 11.763576 -7.678874 1.010399 68.980590 -13.108758 5.763439 0.378956 78.685145 -0.040897 -11.645858 3.507022 -0.390222 0.183794 -0.270341 -0.000000 0.000000 0.000000 0.000000 0.000000 0.000000 0.000000 
-9.284288 15.318424 -0.429919 -51.364404 88.042999 -24.885059 7.446331 -3.132029 10.245582 0.867321 -2.981964 -0.896016 -5.847831 -2.917161 -0.423743 9.426015 -11.934526 -9.262652 -3.019613 -0.180040 -0.853413 0.000000 0.000000 0.000000 6.229485 8.903869 1.926316 -58.348623 5.678326 -0.261924 -179.446222 -82.890330 -179.997486 -0.954602 4.228662 -0.030192 -0.052904 0.277492 0.000000 0.000000 0.000000 0.000000 0.000000 0.000000 0.000000 11.927646 -7.405509 1.028212 68.756602 -12.423530 5.385203 0.389201 78.387070 -0.042062 -11.815074 3.357697 -0.380239 0.185792 -0.270246 -0.000000 0.000000 0.000000 0.000000 0.000000 0.000000 0.000000 
-9.097575 15.322226 -0.422965 -61.318808 88.491293 -34.723986 7.703653 -3.134972 10.212722 0.930805 -2.995956 -0.917632 -5.807917 -2.937730 -0.473210 9.511209 -11.650538 -9.203643 -3.042766 -0.182324 -0.841458 0.000000 0.000000 0.000000 6.201287 8.768522 1.952477 -59.467105 6.263228 0.210281 -179.521147 -83.900157 -179.997644 -0.916145 4.287957 -0.029400 -0.050551 0.272185 0.000000 0.000000 0.000000 0.000000 0.000000 0.000000 0.000000 12.099269 -7.148671 1.042165 68.553395 -11.691539 4.972048 0.398863 78.085139 -0.043302 -11.986659 3.203504 -0.369357 0.187725 -0.270316 -0.000000 0.000000 0.000000 0.000000 0.000000 0.000000 0.000000 
-8.914118 15.329091 -0.415524 -73.840453 88.914229 -47.101471 7.834958 -3.102468 10.171151 0.959591 -2.986178 -0.939474 -5.769027 -2.934700 -0.513797 9.612513 -11.379671 -9.135145 -3.059445 -0.184206 -0.826425 0.000000 0.000000 0.000000 6.189024 8.638579 1.969629 -60.580815 6.800323 0.727502 -179.599383 -84.988376 -179.997825 -0.873145 4.354468 -0.028513 -0.047956 0.266394 0.000000 0.000000 0.000000 0.000000 0.000000 0.000000 0.000000 12.268923 -6.903450 1.052695 68.380915 -10.923123 4.530553 0.407771 77.790569 -0.044596 -12.154870 3.050799 -0.358073 0.189632 -0.270696 -0.000000 0.000000 0.000000 0.000000 0.000000 0.000000 0.000000 
-8.733763 15.338588 -0.407306 -88.809781 89.252772 -61.899142 7.861104 -3.013146 10.130996 0.953775 -2.931902 -0.958881 -5.733641 -2.887488 -0.546672 9.725252 -11.126020 -9.058976 -3.068199 -0.185561 -0.808789 0.000000 0.000000 0.000000 6.188445 8.527498 1.978135 -61.673474 7.300413 1.286516 -179.679400 -86.140961 -179.997965 -0.834502 4.427556 -0.027835 -0.044915 0.259980 0.000000 0.000000 0.000000 0.000000 0.000000 0.000000 0.000000 12.424708 -6.660516 1.060962 68.245924 -10.126819 4.070151 0.415890 77.515182 -0.045932 -12.314909 2.904543 -0.346889 0.191612 -0.271527 -0.000000 0.000000 0.000000 0.000000 0.000000 0.000000 0.000000 
-8.556525 15.350381 -0.398196 -105.083919 89.456130 -77.977606 7.851088 -2.862784 10.099498 0.928111 -2.823360 -0.973409 -5.705139 -2.786292 -0.573673 9.845028 -10.889329 -8.976176 -3.068458 -0.186356 -0.788888 0.000000 0.000000 0.000000 6.194342 8.445992 1.980503 -62.733171 7.770175 1.885382 -179.759493 -87.344411 -179.998026 -0.806847 4.506592 -0.027561 -0.041362 0.252913 0.000000 0.000000 0.000000 0.000000 0.000000 0.000000 0.000000 12.555925 -6.410982 1.066913 68.149162 -9.312943 3.599159 0.422942 77.272519 -0.047300 -12.463429 2.768351 -0.336202 0.193708 -0.272895 -0.000000 0.000000 0.000000 0.000000 0.000000 0.000000 0.000000 
-8.382302 15.364173 -0.388201 -120.735149 89.499577 -93.414101 7.882578 -2.674427 10.075177 0.905459 -2.673968 -0.982931 -5.684233 -2.644289 -0.596561 9.966674 -10.668001 -8.886818 -3.059956 -0.186599 -0.766802 0.000000 0.000000 0.000000 6.197910 8.389578 1.981015 -63.751392 8.217316 2.521282 -179.837674 -88.582772 -179.997993 -0.794512 4.591749 -0.027892 -0.037423 0.245269 0.000000 0.000000 0.000000 0.000000 0.000000 0.000000 0.000000 12.651372 -6.156620 1.069150 68.086262 -8.492327 3.126276 0.428297 77.074925 -0.048695 -12.598613 2.643928 -0.326114 0.195838 -0.274796 -0.000000 0.000000 0.000000 0.000000 0.000000 0.000000 0.000000 
-8.211143 15.379769 -0.377533 -134.143408 89.388123 -106.595907 7.981280 -2.482380 10.053517 0.899558 -2.510583 -0.988841 -5.667876 -2.487947 -0.616114 10.085332 -10.457588 -8.790865 -3.042767 -0.186305 -0.742639 0.000000 0.000000 0.000000 6.190939 8.348515 1.983933 -64.719736 8.644912 3.192740 -179.912282 -89.841235 -179.997882 -0.798409 4.682975 -0.028922 -0.033414 0.237192 0.000000 0.000000 0.000000 0.000000 0.000000 0.000000 0.000000 12.703260 -5.904152 1.065301 68.050819 -7.675919 2.658477 0.431020 76.934574 -0.050113 -12.719745 2.531526 -0.316828 0.197817 -0.277177 -0.000000 0.000000 0.000000 0.000000 0.000000 0.000000 0.000000 
-8.043086 15.397093 -0.366338 -144.801301 89.155276 -117.023756 8.116015 -2.308731 10.035820 0.908539 -2.353581 -0.992181 -5.651527 -2.337390 -0.633845 10.197150 -10.255996 -8.688354 -3.017001 -0.185465 -0.716611 0.000000 0.000000 0.000000 6.164047 8.308476 1.991695 -65.627523 9.069196 3.886808 0.018051 -88.903875 0.002283 -0.817753 4.779653 -0.030552 -0.029550 0.228770 0.000000 0.000000 0.000000 0.000000 0.000000 0.000000 0.000000 12.707784 -5.660824 1.054947 68.035118 -6.863932 2.210340 0.430663 76.855470 -0.051554 -12.827736 2.429211 -0.308242 0.199535 -0.279971 -0.000000 0.000000 0.000000 0.000000 0.000000 0.000000 0.000000 
-7.877880 15.415931 -0.355551 -152.795490 88.834945 -124.779831 8.260048 -2.153912 10.015711 0.927578 -2.206957 -0.995129 -5.630579 -2.196700 -0.648682 10.292717 -10.050940 -8.580185 -2.983135 -0.184101 -0.689039 0.000000 0.000000 0.000000 6.110190 8.286075 2.005089 -66.472205 9.473797 4.618607 -0.047306 -87.649551 0.002439 -0.844222 4.882606 -0.032579 -0.026209 0.220122 0.000000 0.000000 0.000000 0.000000 0.000000 0.000000 0.000000 12.656064 -5.414867 1.036079 68.030055 -6.074982 1.780275 0.426662 76.852937 -0.053018 -12.922931 2.338375 -0.300457 0.200944 -0.283187 -0.000000 0.000000 0.000000 0.000000 0.000000 0.000000 0.000000 
-7.715862 15.436391 -0.344780 -158.822062 88.485429 -130.574608 8.365626 -2.014463 10.013752 0.944448 -2.069267 -0.994445 -5.604474 -2.064408 -0.663982 10.374641 -9.846565 -8.466597 -2.941985 -0.182229 -0.660403 0.000000 0.000000 0.000000 6.024522 8.268391 2.024008 -67.243313 9.894510 5.352253 -0.107210 -86.432651 0.002583 -0.875858 4.988062 -0.034906 -0.023237 0.211278 0.000000 0.000000 0.000000 0.000000 0.000000 0.000000 0.000000 12.556489 -5.170515 1.011538 68.026917 -5.283767 1.396633 0.419664 76.915830 -0.054510 -13.006663 2.252593 -0.292973 0.202116 -0.286749 -0.000000 0.000000 0.000000 0.000000 0.000000 0.000000 0.000000 
-7.556682 15.458292 -0.334864 -163.199512 88.132035 -134.719481 8.435234 -1.879954 10.025212 0.957984 -1.933711 -0.991215 -5.571788 -1.933969 -0.678870 10.435041 -9.633368 -8.348195 -2.894450 -0.179916 -0.630856 0.000000 0.000000 0.000000 5.903623 8.274657 2.047840 -67.943672 10.317505 6.100191 -0.162674 -85.248607 0.002656 -0.901184 5.096039 -0.036929 -0.020857 0.202354 0.000000 0.000000 0.000000 0.000000 0.000000 0.000000 0.000000 12.403463 -4.914067 0.980240 68.014533 -4.502501 1.057932 0.409715 77.052733 -0.056029 -13.080359 2.174048 -0.285988 0.203122 -0.290674 -0.000000 0.000000 0.000000 0.000000 0.000000 0.000000 0.000000 
